# xmcd
#
# Track frame offsets:
# 150
# 18385
# 48617
# 78670
#
# Disc length: 1449 seconds
#
#
# Revision: 3
# Processed by: cddbd v1.5.2PL0 Copyright (c) Steve Scherf et al.
# Submitted via: FreeRIP 2.944 
#
DISCID=2c05a704
DTITLE=Wee Papa Girl Rappers - Best of my love
DYEAR=1990
DGENRE=Rap
TTITLE0=Wee Papa Girl Rappers - Best of my love (Album version)
TTITLE1=Wee Papa Girl Rappers - Best of my love (Sexamatic vox mix)
TTITLE2=Wee Papa Girl Rappers - Best of my love (Automatic jam mix)
TTITLE3=Wee Papa Girl Rappers - Best of my love (Pianos at dawn mix)
EXTD=
EXTT0=
EXTT1=
EXTT2=
EXTT3=
PLAYORDER=
